#!OML:ASF E:\emotionWalksFemale\Project 1\Capture day 1\Session 1\Female1.ASF
:FULLY-SPECIFIED
:DEGREES
3210
root 9.57246 15.3498 20.1246 -355.153 -5.01276 -6.51341
lowerback 10.2608 -2.82096 -1.10121
upperback -4.65962 -3.88281 0.806208
thorax -10.6552 -1.75353 2.23315
lowerneck -7.66261 3.80032 -1.6753
upperneck 13.3028 4.60936 5.45271
head 5.08129 2.53367 2.26774
rclavicle 8.87077e-015 1.59028e-014
rhumerus -48.3532 33.219 -108.942
rradius 43.8151
rwrist -5.96006
rhand 19.1235 -65.2644
rfingers 7.12502
rthumb -136.282 1890.75
lclavicle 8.87077e-015 1.59028e-014
lhumerus -42.2844 -3.03788 81.6876
lradius 42.2165
lwrist -4.31627
lhand -5.30104 -32.7852
lfingers 7.12502
lthumb 20.5041 -3.8479
rfemur -13.6491 8.58097 34.2467
rtibia 21.5286
rfoot -11.3752 -17.6725
rtoes 3.95519
lfemur -14.0631 2.32633 -12.5783
ltibia 67.6358
lfoot 1.89083 -14.1587
ltoes -16.9033
3211
root 9.55914 15.3369 20.226 -355.109 -4.89838 -6.67542
lowerback 10.5731 -2.75408 -1.09858
upperback -4.63007 -3.79238 0.831805
thorax -10.8106 -1.70508 2.26045
lowerneck -7.50867 3.73291 -1.85114
upperneck 13.0591 4.51655 5.68686
head 4.97289 2.49203 2.35397
rclavicle -3.39673e-014 0
rhumerus -48.4183 32.9828 -108.871
rradius 43.5044
rwrist -5.27762
rhand 18.9601 -64.731
rfingers 7.12502
rthumb -136.435 1891.23
lclavicle -3.39673e-014 0
lhumerus -42.1727 -2.47276 81.169
lradius 42.419
lwrist -4.26491
lhand -5.64587 -32.615
lfingers 7.12502
lthumb 20.1728 -3.64238
rfemur -13.3481 8.15092 34.5018
rtibia 21.6564
rfoot -11.7751 -17.4416
rtoes 3.78349
lfemur -16.3721 2.13233 -12.2304
ltibia 69.5008
lfoot -0.837114 -14.0063
ltoes -17.3191
3212
root 9.54355 15.3196 20.3283 -355.101 -4.82581 -6.73011
lowerback 10.8699 -2.65903 -1.18626
upperback -4.60493 -3.68515 0.784672
thorax -10.9619 -1.6454 2.25504
lowerneck -7.44226 3.64392 -1.90191
upperneck 12.9414 4.3773 5.90364
head 4.92423 2.43396 2.41699
rclavicle 9.31803e-015 -1.82882e-014
rhumerus -48.5787 32.703 -108.837
rradius 43.4121
rwrist -4.78062
rhand 19.48 -64.5197
rfingers 7.12502
rthumb -135.95 1891.62
lclavicle 9.31803e-015 -1.82882e-014
lhumerus -42.1218 -2.06404 80.6637
lradius 42.5726
lwrist -4.18387
lhand -6.07737 -32.0255
lfingers 7.12502
lthumb 19.758 -3.00967
rfemur -13.0961 7.89604 34.6535
rtibia 21.9738
rfoot -12.1889 -17.406
rtoes 2.84251
lfemur -18.5409 2.01955 -12.0114
ltibia 71.0036
lfoot -3.87748 -13.6018
ltoes -20.764
3213
root 9.52671 15.3028 20.4284 -355.199 -4.66744 -6.90769
lowerback 11.1277 -2.59513 -1.15301
upperback -4.41042 -3.60065 0.717465
thorax -10.9079 -1.61126 2.15454
lowerneck -7.4935 3.56848 -1.51634
upperneck 12.8054 4.24159 5.81899
head 4.90837 2.37979 2.31875
rclavicle 7.50412e-015 -1.27222e-014
rhumerus -48.5214 32.6706 -108.843
rradius 43.4976
rwrist -4.88017
rhand 19.2012 -64.2657
rfingers 7.12502
rthumb -136.21 1891.77
lclavicle 7.50412e-015 -1.27222e-014
lhumerus -41.8012 -1.53848 79.9986
lradius 42.5907
lwrist -4.28006
lhand -6.24955 -31.3403
lfingers 7.12502
lthumb 19.5925 -2.30754
rfemur -12.8513 7.42933 34.9603
rtibia 22.5206
rfoot -12.7467 -17.2407
rtoes 1.74411
lfemur -20.6252 1.86894 -11.6483
ltibia 72.2082
lfoot -6.88154 -12.625
ltoes -24.113
3214
root 9.5128 15.2886 20.5248 -355.268 -4.51422 -7.02836
lowerback 11.4223 -2.54577 -1.17903
upperback -4.21359 -3.54723 0.632645
thorax -10.8692 -1.58809 2.07612
lowerneck -7.72471 3.46696 -1.66907
upperneck 12.6952 4.07804 6.20348
head 4.90758 2.31931 2.45626
rclavicle -1.1368e-014 -5.56597e-015
rhumerus -48.5038 32.7974 -108.968
rradius 43.6726
rwrist -5.06873
rhand 18.4212 -63.9288
rfingers 7.12502
rthumb -136.938 1891.85
lclavicle -1.1368e-014 -5.56597e-015
lhumerus -41.4312 -0.856418 79.2421
lradius 42.6718
lwrist -4.29985
lhand -6.06388 -31.3823
lfingers 7.12502
lthumb 19.771 -2.36777
rfemur -12.746 6.75683 35.1885
rtibia 23.2179
rfoot -13.3592 -16.8434
rtoes 1.00448
lfemur -22.787 1.61495 -11.3784
ltibia 73.0893
lfoot -9.42502 -11.3499
ltoes -25.7298
3215
root 9.49951 15.2687 20.6186 -355.285 -4.44296 -7.02348
lowerback 11.8855 -2.50178 -1.42358
upperback -4.15038 -3.53874 0.570638
thorax -11.0642 -1.56433 2.16854
lowerneck -7.76811 3.32382 -1.85317
upperneck 12.5783 3.86944 6.53525
head 4.87626 2.22928 2.57537
rclavicle -2.6134e-014 -1.35174e-014
rhumerus -48.7751 33.0322 -109.208
rradius 44.0041
rwrist -5.17358
rhand 18.4509 -63.9374
rfingers 7.12502
rthumb -136.911 1891.85
lclavicle -2.6134e-014 -1.35174e-014
lhumerus -41.2521 -0.0409533 78.5517
lradius 42.8065
lwrist -4.17128
lhand -5.67406 -31.7427
lfingers 7.12502
lthumb 20.1457 -2.76722
rfemur -12.7471 6.36715 35.2691
rtibia 23.9712
rfoot -13.8547 -16.7523
rtoes 0.257143
lfemur -24.9225 1.41796 -11.2685
ltibia 73.6252
lfoot -11.8608 -9.7611
ltoes -28.7778
3216
root 9.48504 15.2526 20.7179 -355.37 -4.42838 -6.88748
lowerback 12.224 -2.45735 -1.82595
upperback -3.97612 -3.56157 0.440353
thorax -11.0539 -1.55266 2.27044
lowerneck -8.11413 3.24825 -1.72557
upperneck 12.6178 3.74768 6.54465
head 4.95541 2.18145 2.55918
rclavicle -5.4203e-014 0
rhumerus -48.866 33.3049 -109.398
rradius 44.397
rwrist -5.34117
rhand 18.6209 -64.0151
rfingers 7.12502
rthumb -136.752 1891.83
lclavicle -5.4203e-014 0
lhumerus -41.0307 0.803509 77.8495
lradius 43.0706
lwrist -4.14489
lhand -6.0139 -31.6667
lfingers 7.12502
lthumb 19.819 -2.65717
rfemur -12.6936 6.05011 35.2123
rtibia 24.7446
rfoot -14.3458 -16.7659
rtoes -0.824259
lfemur -26.8158 1.20798 -11.2984
ltibia 73.7659
lfoot -14.1153 -8.05736
ltoes -30.6426
3217
root 9.47074 15.2395 20.8184 -355.511 -4.39836 -6.75255
lowerback 12.2759 -2.39253 -2.11218
upperback -3.59465 -3.5365 0.229145
thorax -10.6559 -1.54132 2.18612
lowerneck -8.28295 3.13976 -1.63423
upperneck 12.2149 3.58831 6.68194
head 4.8665 2.11441 2.57282
rclavicle -1.05604e-014 -2.06736e-014
rhumerus -48.5577 33.3674 -109.336
rradius 44.7927
rwrist -5.37509
rhand 18.6532 -63.9453
rfingers 7.12502
rthumb -136.722 1891.91
lclavicle -1.05604e-014 -2.06736e-014
lhumerus -40.5666 1.58048 77.1633
lradius 43.4192
lwrist -4.05679
lhand -7.10969 -31.0475
lfingers 7.12502
lthumb 18.7653 -1.93264
rfemur -12.5604 5.47568 35.1516
rtibia 25.5088
rfoot -14.9736 -16.4388
rtoes -1.29038
lfemur -28.5919 0.852011 -11.2973
ltibia 73.549
lfoot -15.6044 -6.74636
ltoes -28.2302
3218
root 9.45883 15.2197 20.9127 -355.517 -4.33462 -6.84766
lowerback 12.9615 -2.34006 -2.25914
upperback -3.70493 -3.51229 0.213835
thorax -11.1798 -1.505 2.28875
lowerneck -7.93094 3.07918 -1.81444
upperneck 11.929 3.51118 6.93658
head 4.71357 2.07588 2.66291
rclavicle -4.11981e-014 -3.02153e-014
rhumerus -49.2222 33.3797 -109.599
rradius 45.2298
rwrist -5.20166
rhand 18.7617 -63.7177
rfingers 7.12502
rthumb -136.62 1892.17
lclavicle -4.11981e-014 -3.02153e-014
lhumerus -40.7649 2.25519 76.6498
lradius 43.5177
lwrist -3.70267
lhand -7.73578 -31.0124
lfingers 7.12502
lthumb 18.1631 -1.84046
rfemur -12.5095 5.0648 35.3183
rtibia 26.2099
rfoot -15.6482 -16.177
rtoes -0.0419928
lfemur -30.5031 0.449066 -11.0357
ltibia 73.0268
lfoot -16.767 -5.4473
ltoes -27.2159
3219
root 9.45141 15.2045 21.0056 -355.301 -4.2785 -6.92442
lowerback 13.4985 -2.31891 -2.3756
upperback -3.85203 -3.52532 0.1891
thorax -11.6601 -1.48913 2.36513
lowerneck -7.79295 3.00154 -1.98701
upperneck 11.7105 3.41533 7.12603
head 4.62051 2.02809 2.73681
rclavicle 1.75179e-014 -1.11319e-014
rhumerus -49.763 33.4974 -109.899
rradius 45.5899
rwrist -5.05726
rhand 18.9265 -63.6926
rfingers 7.12502
rthumb -136.466 1892.25
lclavicle 1.75179e-014 -1.11319e-014
lhumerus -40.8307 2.73464 76.1008
lradius 43.4062
lwrist -3.04091
lhand -7.87242 -31.7741
lfingers 7.12502
lthumb 18.0316 -2.5899
rfemur -12.6015 4.75001 35.433
rtibia 26.7385
rfoot -16.2341 -15.9496
rtoes 0.864792
lfemur -32.5365 0.0437954 -10.8181
ltibia 72.119
lfoot -17.7681 -3.92886
ltoes -28.5305
3220
root 9.44525 15.1962 21.0979 -355.016 -4.26046 -6.91972
lowerback 14.0732 -2.33553 -2.6227
upperback -4.05647 -3.61877 0.163013
thorax -12.2191 -1.49764 2.53678
lowerneck -7.72073 2.97966 -1.95239
upperneck 11.5213 3.39765 7.06626
head 4.55317 2.0137 2.70632
rclavicle -2.05494e-014 -2.8625e-014
rhumerus -50.3344 33.6998 -110.259
rradius 46.0203
rwrist -5.17319
rhand 19.3146 -63.9421
rfingers 7.12502
rthumb -136.104 1892.14
lclavicle -2.05494e-014 -2.8625e-014
lhumerus -41.1802 3.43226 75.4427
lradius 43.6383
lwrist -2.45333
lhand -7.99657 -32.1056
lfingers 7.12502
lthumb 17.9121 -2.91046
rfemur -12.6594 4.36214 35.4557
rtibia 26.9854
rfoot -16.4681 -15.691
rtoes -0.177145
lfemur -34.4827 -0.410571 -10.6474
ltibia 70.8131
lfoot -18.2949 -2.44473
ltoes -27.6687
3221
root 9.44094 15.191 21.1992 -354.841 -4.40831 -7.05193
lowerback 13.7086 -2.29385 -2.58964
upperback -3.5699 -3.54607 0.0336095
thorax -11.4629 -1.49706 2.3222
lowerneck -7.93735 2.97873 -2.11954
upperneck 10.7187 3.42208 7.38026
head 4.33428 2.0307 2.82067
rclavicle 2.88735e-014 7.95139e-015
rhumerus -49.7749 34.1786 -110.133
rradius 46.4115
rwrist -5.65246
rhand 19.3065 -63.818
rfingers 7.12502
rthumb -136.111 1892.26
lclavicle 2.88735e-014 7.95139e-015
lhumerus -40.4824 4.15881 74.7956
lradius 43.8103
lwrist -2.0287
lhand -8.10518 -32.022
lfingers 7.12502
lthumb 17.8076 -2.81734
rfemur -12.5485 4.12772 35.6057
rtibia 27.2333
rfoot -16.6471 -15.5269
rtoes -0.959256
lfemur -36.0682 -0.932248 -10.2595
ltibia 69.1752
lfoot -18.4601 -3.61712
ltoes -16.8209
3222
root 9.44059 15.1954 21.3178 -354.892 -4.90519 -7.23353
lowerback 13.1873 -2.12102 -2.42082
upperback -2.86814 -3.27089 -0.168749
thorax -10.4042 -1.41788 1.89773
lowerneck -8.0873 2.89908 -2.28632
upperneck 9.62383 3.37015 7.59798
head 4.02204 1.99878 2.89419
rclavicle 4.51241e-014 -9.54166e-015
rhumerus -49.096 34.4653 -109.922
rradius 46.7472
rwrist -6.04687
rhand 18.866 -63.3977
rfingers 7.12502
rthumb -136.523 1892.53
lclavicle 4.51241e-014 -9.54166e-015
lhumerus -39.6117 4.68664 74.2272
lradius 43.9494
lwrist -1.5355
lhand -8.25877 -32.152
lfingers 7.12502
lthumb 17.6598 -2.93398
rfemur -11.9103 3.78353 35.7345
rtibia 27.1433
rfoot -16.9146 -14.9674
rtoes -0.57493
lfemur -36.9331 -1.4023 -9.86363
ltibia 67.1087
lfoot -18.9667 -2.62861
ltoes -12.3858
3223
root 9.425 15.1711 21.3752 -354.235 -4.54522 -7.33647
lowerback 13.7102 -2.19092 -2.59586
upperback -3.05066 -3.41516 -0.160127
thorax -10.8987 -1.4607 2.06868
lowerneck -8.26995 2.86084 -2.03913
upperneck 9.30759 3.32619 7.39234
head 3.96755 1.9734 2.78643
rclavicle -1.15295e-014 1.27222e-014
rhumerus -49.3791 34.376 -109.998
rradius 47.1565
rwrist -6.19519
rhand 18.5648 -63.0378
rfingers 7.12502
rthumb -136.804 1892.79
lclavicle -1.15295e-014 1.27222e-014
lhumerus -39.6896 5.25423 73.7098
lradius 44.4129
lwrist -1.08319
lhand -8.29157 -32.2507
lfingers 7.12502
lthumb 17.6283 -3.02985
rfemur -12.2965 3.72918 35.9546
rtibia 27.05
rfoot -17.2125 -15.203
rtoes 0.579122
lfemur -39.0561 -2.17854 -9.33308
ltibia 64.8836
lfoot -19.5671 -0.057808
ltoes -24.6197
